<?xml version="1.0" encoding="UTF-8" standalone="no"?>
<!-- Created with Inkscape (http://www.inkscape.org/) -->

<svg
   width="163.84"
   height="57.279999"
   viewBox="0 0 43.349331 15.155333"
   version="1.1"
   id="svg5"
   inkscape:version="1.1.2 (0a00cf5339, 2022-02-04)"
   sodipodi:docname="brother.svg"
   xmlns:inkscape="http://www.inkscape.org/namespaces/inkscape"
   xmlns:sodipodi="http://sodipodi.sourceforge.net/DTD/sodipodi-0.dtd"
   xmlns="http://www.w3.org/2000/svg"
   xmlns:svg="http://www.w3.org/2000/svg">
  <sodipodi:namedview
     id="namedview7"
     pagecolor="#ffffff"
     bordercolor="#666666"
     borderopacity="1.0"
     inkscape:pageshadow="2"
     inkscape:pageopacity="0.0"
     inkscape:pagecheckerboard="0"
     inkscape:document-units="px"
     showgrid="false"
     units="px"
     width="1200px"
     inkscape:zoom="15.46875"
     inkscape:cx="131.07071"
     inkscape:cy="24.339394"
     inkscape:window-width="1366"
     inkscape:window-height="670"
     inkscape:window-x="0"
     inkscape:window-y="28"
     inkscape:window-maximized="1"
     inkscape:current-layer="layer1" />
  <defs
     id="defs2" />
  <g
     inkscape:label="Layer 1"
     inkscape:groupmode="layer"
     id="layer1"
     transform="translate(-11.165738,-26.289)">
    <path
       style="display:inline;fill:#2e4b9a;fill-opacity:1;stroke-width:0.0846667"
       d="m 14.717617,38.455817 c -1.063796,-0.241643 -2.011792,-0.971456 -2.491469,-1.918053 -0.413977,-0.816943 -0.464672,-1.30757 -0.466273,-4.512597 L 11.758405,29.083 h 0.889 0.889 v 1.313737 1.313738 l 0.43166,-0.296931 c 1.06755,-0.734345 2.630305,-0.743655 3.768327,-0.02245 0.529493,0.335559 1.127035,1.040723 1.422592,1.678813 l 0.274331,0.592263 0.137486,-0.490419 c 0.385144,-1.373827 1.491975,-2.171477 3.173103,-2.286733 l 0.6985,-0.04789 v 0.65413 0.65413 l 0.394371,-0.34714 c 0.87144,-0.767072 2.003318,-1.096276 3.203962,-0.931865 1.246255,0.170657 2.340988,0.989612 2.93749,2.197496 l 0.312823,0.633451 0.0047,-2.307166 0.0047,-2.307167 h 0.886135 0.886136 l 0.02403,0.910167 0.02403,0.910166 1.418166,0.02321 1.418167,0.02321 v 0.84463 0.84462 h -1.403596 -1.403597 l 0.02776,1.5875 c 0.03218,1.83992 0.09459,2.037792 0.749367,2.375907 0.313421,0.161845 0.483057,0.190999 0.979597,0.16836 0.50276,-0.02292 0.651073,-0.06593 0.910948,-0.264146 0.170728,-0.13022 0.39526,-0.396482 0.498959,-0.591693 0.182308,-0.343188 0.190317,-0.461351 0.242123,-3.572261 0.02947,-1.769534 0.05857,-3.228192 0.06468,-3.241462 0.0061,-0.01327 0.401619,-0.01327 0.878928,0 l 0.867833,0.02413 0.02356,1.164167 c 0.01296,0.640292 0.039,1.164167 0.05787,1.164167 0.01887,0 0.217825,-0.113936 0.44211,-0.253191 1.0047,-0.623799 2.427135,-0.479621 3.361447,0.340716 0.407257,0.357577 0.774947,0.964355 0.952841,1.572423 l 0.151238,0.516948 0.318047,-0.653601 c 0.569232,-1.169794 1.621332,-1.942701 2.883399,-2.118239 0.850511,-0.118295 1.616251,9.12e-4 2.401596,0.373871 0.829821,0.39408 1.359813,0.932424 1.791665,1.819897 l 0.338168,0.694948 0.05468,-0.363719 c 0.03007,-0.200046 0.181003,-0.59232 0.335395,-0.87172 0.533465,-0.965396 1.523377,-1.526633 2.868815,-1.626495 l 0.656167,-0.0487 v 0.847858 0.847857 l -0.435616,0.05779 c -0.949613,0.125971 -1.472097,0.616813 -1.600289,1.503373 -0.04255,0.294244 -0.07812,1.382714 -0.07906,2.418823 l -0.0017,1.883833 h -0.888999 -0.889 V 36.83 35.263666 h -3.01142 -3.011372 l 0.05683,0.1905 c 0.109686,0.367672 0.465371,0.900139 0.767828,1.149449 0.91869,0.757263 2.502955,0.445943 3.048819,-0.599115 0.120963,-0.231585 0.126403,-0.232834 1.014147,-0.232834 1.025243,0 0.992053,-0.05308 0.535764,0.856797 -0.68013,1.356226 -2.27246,2.109918 -3.935169,1.862621 -1.343716,-0.199853 -2.371022,-0.947567 -2.950355,-2.147384 l -0.296647,-0.614367 -0.0039,1.3335 -0.0039,1.3335 h -0.889 -0.889 l -0.0018,-0.359833 c -0.0051,-1.011342 -0.09175,-3.878443 -0.126942,-4.20199 -0.08661,-0.796258 -0.62739,-1.280177 -1.430594,-1.280177 -0.517616,0 -0.829444,0.121323 -1.124761,0.437611 -0.389073,0.416703 -0.448541,0.727026 -0.448541,2.340663 0,0.832542 -0.02475,1.862465 -0.05501,2.28872 l -0.05501,0.775006 H 36.416795 35.531211 L 35.565806,38.1 c 0.01903,-0.162984 0.01165,-0.296334 -0.01639,-0.296334 -0.02804,0 -0.201367,0.110486 -0.385166,0.245525 -1.079046,0.792786 -2.812762,0.62903 -3.91872,-0.370136 -0.39157,-0.353761 -0.815119,-1.134454 -0.905407,-1.668867 l -0.06053,-0.358284 -0.299607,0.630669 c -1.413205,2.97477 -5.57381,3.033055 -7.024196,0.0984 -0.316158,-0.639705 -0.317716,-0.648067 -0.317716,-1.705581 0,-0.983717 0.0174,-1.099876 0.234051,-1.562451 0.128729,-0.274849 0.2183,-0.515478 0.199047,-0.534731 -0.06357,-0.06356 -0.766699,0.157846 -1.047681,0.329905 -0.151753,0.09293 -0.380353,0.346615 -0.508,0.563754 l -0.232084,0.394798 -0.02929,2.264834 -0.02929,2.264833 h -0.923212 -0.923213 l -0.0047,-1.291167 -0.0047,-1.291166 -0.144353,0.338666 c -0.470937,1.104869 -1.125746,1.730141 -2.250942,2.149409 -0.615776,0.229449 -1.621129,0.297961 -2.256032,0.153742 z m 1.830454,-1.869722 c 0.536705,-0.249915 0.933808,-0.721179 1.107321,-1.31412 0.167453,-0.572233 0.107081,-1.070846 -0.197391,-1.630261 -0.884075,-1.624338 -3.353216,-1.367713 -3.8864,0.403925 -0.153773,0.510946 -0.151383,0.841356 0.0095,1.31352 0.40877,1.199673 1.794701,1.772799 2.96697,1.226936 z m 10.857176,-0.01774 c 0.552323,-0.275234 0.91527,-0.707904 1.087478,-1.296385 0.167453,-0.572233 0.107081,-1.070846 -0.197391,-1.630261 -0.884075,-1.624338 -3.353216,-1.367713 -3.886401,0.403925 -0.153772,0.510946 -0.151382,0.841356 0.0095,1.31352 0.413862,1.214619 1.827485,1.786919 2.986814,1.209201 z m 20.710436,-2.817282 c 0.08351,-0.135119 -0.464262,-0.845862 -0.847595,-1.099771 -0.675131,-0.447188 -1.558395,-0.428549 -2.256202,0.04761 -0.336268,0.229459 -0.852802,0.929125 -0.776764,1.052158 0.0249,0.04029 0.898027,0.07326 1.940281,0.07326 1.042253,0 1.91538,-0.03297 1.94028,-0.07326 z"
       id="path879"
       sodipodi:nodetypes="csscccccssscsscccsssccccccccccccccssssscscssssscsssscssscccssccccccccsssssssccccccssssccccssssscssssccscccccccssccsssssssssssssssssss" />
  </g>
</svg>
