<?xml version="1.0" encoding="UTF-8" standalone="no"?>
<!-- Created with Inkscape (http://www.inkscape.org/) -->

<svg
   width="163.84"
   height="57.279999"
   viewBox="0 0 43.349331 15.155333"
   version="1.1"
   id="svg5"
   inkscape:version="1.1.2 (0a00cf5339, 2022-02-04)"
   sodipodi:docname="brother.svg"
   xmlns:inkscape="http://www.inkscape.org/namespaces/inkscape"
   xmlns:sodipodi="http://sodipodi.sourceforge.net/DTD/sodipodi-0.dtd"
   xmlns="http://www.w3.org/2000/svg"
   xmlns:svg="http://www.w3.org/2000/svg">
  <sodipodi:namedview
     id="namedview7"
     pagecolor="#ffffff"
     bordercolor="#666666"
     borderopacity="1.0"
     inkscape:pageshadow="2"
     inkscape:pageopacity="0.0"
     inkscape:pagecheckerboard="0"
     inkscape:document-units="px"
     showgrid="false"
     units="px"
     width="1200px"
     fit-margin-top="0"
     fit-margin-left="0"
     fit-margin-right="0"
     fit-margin-bottom="0"
     inkscape:zoom="1.3672573"
     inkscape:cx="97.275037"
     inkscape:cy="104.95465"
     inkscape:window-width="1366"
     inkscape:window-height="670"
     inkscape:window-x="0"
     inkscape:window-y="28"
     inkscape:window-maximized="1"
     inkscape:current-layer="layer1" />
  <defs
     id="defs2" />
  <g
     inkscape:label="Layer 1"
     inkscape:groupmode="layer"
     id="layer1"
     transform="translate(-11.165738,-26.289)">
    <path
       style="display:inline;fill:#2e4b9a;fill-opacity:1;stroke:none;stroke-width:0.264583px;stroke-linecap:butt;stroke-linejoin:miter;stroke-opacity:1"
       d="m 13.582644,29.092578 h -1.901383 v 5.55797 c 0,2.362008 1.885109,3.912967 3.912967,3.912967 2.224388,0 3.870364,-1.500771 3.870364,-3.870363 0,-2.784079 -1.745978,-3.941892 -3.941893,-3.941892 -1.369445,0 -1.967947,0.975469 -1.967947,0.975469 l 0.718467,1.244421 c 0.684422,-0.684422 2.243509,-0.416506 2.918732,0.258717 0.584559,0.58456 0.899323,1.963661 -0.196211,3.059195 -0.639388,0.639388 -1.970524,0.766567 -2.770677,-0.03359 -0.863254,-0.863254 -1.110083,-2.033367 0.04816,-3.284326 l -0.718465,-1.244421 z"
       id="path926"
       sodipodi:nodetypes="cccccccccccccc" />
    <path
       style="display:inline;fill:#2e4b9a;fill-opacity:1;stroke:none;stroke-width:0.264583px;stroke-linecap:butt;stroke-linejoin:miter;stroke-opacity:1"
       d="m 23.438199,30.76716 v 1.890849 c -1.448437,0 -2.159012,0.29409 -2.159012,2.159012 v 3.558029 h -1.886966 v -4.273256 c 0,-2.267999 1.443147,-3.334634 4.045978,-3.334634 z"
       id="path4640"
       sodipodi:nodetypes="ccccccc" />
    <path
       style="display:inline;fill:#2e4b9a;fill-opacity:1;stroke:none;stroke-width:0.264583px;stroke-linecap:butt;stroke-linejoin:miter;stroke-opacity:1"
       d="m 26.382812,32.565761 c -1.255831,0 -2.078974,1.063351 -2.078974,2.078975 0,1.109507 0.823665,2.132635 2.132635,2.132635 1.474155,0 2.15352,-1.116336 2.15352,-2.153521 0,-1.180484 -0.980798,-2.058089 -2.207181,-2.058089 l 0.08662,-1.738172 c 2.29901,0 3.893339,1.742921 3.893339,3.787343 0,2.182323 -1.73996,4.016397 -4.049473,4.016397 -2.207192,0 -3.823803,-1.849424 -3.823803,-3.823803 0,-2.648963 1.779481,-3.979937 3.979937,-3.979937 z"
       id="path5501"
       sodipodi:nodetypes="ccccccccccc" />
    <path
       style="display:inline;fill:#2e4b9a;fill-opacity:1;stroke:none;stroke-width:0.264583px;stroke-linecap:butt;stroke-linejoin:miter;stroke-opacity:1"
       d="m 30.227695,29.082705 h 1.896038 v 1.792582 h 2.911822 v 1.788388 h -2.807704 v 2.861786 c 0,0.897721 0.834611,1.241507 1.366508,1.241507 0.614311,0 1.552288,0.0383 1.957972,-1.670658 v -6.028853 h 1.805816 v 2.483828 c 0.664488,-0.728446 1.256131,-0.790268 1.87508,-0.790268 1.517496,0 3.13432,1.172719 3.13432,3.177896 v 4.447832 H 40.420839 V 34.26944 c 0,-1.254015 -0.520984,-1.75567 -1.438605,-1.75567 -0.875458,0 -1.566305,0.696213 -1.566305,1.460547 v 4.45283 h -1.911617 v -0.604843 c -0.589126,0.653648 -1.211431,0.803083 -2.28141,0.803083 -1.176519,0 -3.05189,-1.225203 -3.05189,-3.459465 z"
       id="path8414"
       sodipodi:nodetypes="ccccccccccccccccccccccccc" />
    <path
       style="display:inline;fill:#2e4b9a;fill-opacity:1;stroke:none;stroke-width:0.264583px;stroke-linecap:butt;stroke-linejoin:miter;stroke-opacity:1"
       d="m 48.057626,35.721496 h 1.862035 c 0,1.517367 -1.660008,2.864709 -3.765241,2.864709 -2.266537,0 -3.976108,-1.756578 -3.976108,-3.65069 0,-2.149312 1.437222,-4.200967 3.874251,-4.200967 2.590458,0 4.27549,1.958989 4.27549,4.49667 H 44.15585 l 0.06903,-1.513388 3.913439,-0.01733 c -0.36495,-0.762889 -1.037121,-1.37502 -1.980687,-1.369502 -0.737361,0.0019 -1.713072,0.561682 -1.932752,1.386831 l -0.06903,1.513388 c 0,0 0.569423,1.75514 1.875949,1.75514 1.447663,0 1.651894,-0.681222 2.025827,-1.264861 z"
       id="path9535"
       sodipodi:nodetypes="cccccccccccccc" />
    <path
       style="display:inline;fill:#2e4b9a;fill-opacity:1;stroke:none;stroke-width:0.264583px;stroke-linecap:butt;stroke-linejoin:miter;stroke-opacity:1"
       d="m 54.115382,30.803011 v 1.890849 c -1.448437,0 -2.159012,0.29409 -2.159012,2.159012 v 3.558029 h -1.886966 v -4.273256 c 0,-2.267999 1.443147,-3.334634 4.045978,-3.334634 z"
       id="path11412"
       sodipodi:nodetypes="ccccccc" />
  </g>
</svg>
