<?xml version="1.0" encoding="UTF-8" standalone="no"?>
<!-- Created with Inkscape (http://www.inkscape.org/) -->

<svg
   width="163.84"
   height="57.279999"
   viewBox="0 0 43.349331 15.155333"
   version="1.1"
   id="svg5"
   inkscape:version="1.1.2 (0a00cf5339, 2022-02-04)"
   sodipodi:docname="canon.svg"
   xmlns:inkscape="http://www.inkscape.org/namespaces/inkscape"
   xmlns:sodipodi="http://sodipodi.sourceforge.net/DTD/sodipodi-0.dtd"
   xmlns="http://www.w3.org/2000/svg"
   xmlns:svg="http://www.w3.org/2000/svg">
  <sodipodi:namedview
     id="namedview7"
     pagecolor="#ffffff"
     bordercolor="#666666"
     borderopacity="1.0"
     inkscape:pageshadow="2"
     inkscape:pageopacity="0.0"
     inkscape:pagecheckerboard="0"
     inkscape:document-units="px"
     showgrid="false"
     units="px"
     width="1200px"
     inkscape:zoom="1.8007812"
     inkscape:cx="82.741866"
     inkscape:cy="28.598698"
     inkscape:window-width="1366"
     inkscape:window-height="670"
     inkscape:window-x="0"
     inkscape:window-y="28"
     inkscape:window-maximized="1"
     inkscape:current-layer="layer1" />
  <defs
     id="defs2" />
  <g
     inkscape:label="Layer 1"
     inkscape:groupmode="layer"
     id="layer1"
     transform="translate(-24.533865,-26.289)">
    <path
       style="display:inline;fill:#ed3237;fill-opacity:1;stroke-width:0.0846667"
       d="m 29.836015,39.360576 c -2.221495,-0.484889 -3.763608,-1.773038 -4.246252,-3.546954 -0.182386,-0.670346 -0.184078,-2.400342 -0.0032,-3.244366 0.516351,-2.409061 2.10597,-3.872737 4.525467,-4.166919 1.709136,-0.207811 3.057031,0.199249 4.190773,1.265597 0.463832,0.43626 1.153033,1.325126 1.153033,1.487072 0,0.05832 -0.257175,0.299728 -0.5715,0.536453 -0.314325,0.236725 -1.019175,0.775635 -1.566333,1.197579 -0.547158,0.421943 -0.994833,0.74869 -0.994833,0.726104 0,-0.02259 0.24156,-0.565783 0.5368,-1.207104 0.29524,-0.641321 0.665022,-1.447018 0.821737,-1.790438 l 0.284938,-0.6244 -0.22491,-0.19346 c -0.394579,-0.339403 -1.142783,-0.56979 -1.693603,-0.521495 -1.883523,0.165146 -3.450295,2.248739 -3.450295,4.588421 0,1.734832 1.033302,3.734536 2.227572,4.310922 1.362299,0.657482 3.174332,0.07704 4.049831,-1.297275 0.232629,-0.365169 0.239247,-0.368733 0.314442,-0.169333 0.108404,0.287463 0.0096,0.439461 -0.806483,1.24094 -0.800824,0.786471 -1.240247,1.042575 -2.200084,1.282252 -0.951941,0.237704 -1.662018,0.275945 -2.347128,0.126404 z m 8.032849,-0.0094 c -0.790581,-0.0908 -1.549283,-0.765063 -1.917257,-1.703883 -0.278445,-0.710401 -0.277798,-1.938446 0.0013,-2.468248 0.327542,-0.621764 0.760198,-1.091198 1.225152,-1.329297 0.798751,-0.409033 2.197925,-0.24419 2.978077,0.35086 0.346051,0.263946 0.408238,0.270309 0.333268,0.0341 -0.03183,-0.100285 -0.164054,-0.656662 -0.293833,-1.236394 -0.129779,-0.579731 -0.268229,-1.08604 -0.307668,-1.12513 -0.03944,-0.03909 -0.649427,-0.0785 -1.35553,-0.08757 -0.706104,-0.0091 -1.326055,-0.0426 -1.377671,-0.0745 -0.05161,-0.0319 0.563159,-0.376714 1.366163,-0.766253 1.197465,-0.580894 1.528939,-0.707204 1.843336,-0.702415 0.707721,0.01078 1.411276,0.459315 1.823318,1.162413 0.196466,0.335243 0.269006,0.644297 0.975283,4.155186 0.103045,0.512233 0.309433,1.531408 0.45864,2.264833 l 0.271286,1.3335 -0.217932,0.0075 c -0.119863,0.0041 -0.64198,0.02244 -1.16026,0.04068 l -0.942328,0.03316 -0.172768,-0.725384 c -0.177846,-0.746706 -0.262497,-0.92684 -0.336874,-0.716851 -0.07819,0.220755 -0.723651,0.861925 -1.07494,1.067794 -0.643613,0.377183 -1.451698,0.562497 -2.118762,0.485883 z m 2.142038,-1.243087 c 0.554424,-0.288466 0.893553,-0.9035 0.891453,-1.616711 -0.0046,-1.579363 -1.360225,-2.353994 -2.266525,-1.295187 -0.545799,0.637644 -0.605157,1.636073 -0.140798,2.368291 0.371994,0.586573 1.000264,0.811877 1.51587,0.543607 z m 14.912313,1.188518 c -1.232032,-0.332191 -2.298055,-1.584629 -2.661812,-3.127284 -0.160815,-0.682 -0.158041,-1.987588 0.0057,-2.682328 0.30923,-1.312037 1.111802,-2.416217 2.124039,-2.92226 0.430392,-0.215165 0.59056,-0.247991 1.215387,-0.24909 0.920693,-0.0016 1.498119,0.245759 2.162827,0.926595 1.30322,1.334839 1.715197,3.689015 0.982857,5.616378 -0.485085,1.27664 -1.359608,2.145438 -2.443843,2.427845 -0.571635,0.148893 -0.862663,0.151024 -1.385156,0.01014 z m 1.895194,-0.681346 c 0.262091,-0.242898 0.349948,-0.538602 0.286662,-0.96483 -0.02551,-0.171812 -0.315969,-1.574139 -0.645462,-3.116281 -0.329494,-1.542141 -0.599079,-2.854544 -0.599079,-2.916449 0,-0.194638 -0.440335,-0.757697 -0.629724,-0.805231 -0.48477,-0.121669 -0.978059,0.40201 -0.978626,1.038918 -3.39e-4,0.385861 1.123091,5.839787 1.285096,6.238739 0.289151,0.71206 0.83709,0.93666 1.281133,0.525134 z m 7.766384,-2.796787 c -0.01114,-3.623354 -0.02461,-3.7433 -0.436403,-3.888122 -0.345315,-0.121441 -0.631075,-0.0055 -0.784778,0.318404 -0.119069,0.25092 -0.137082,0.723879 -0.137082,3.599251 v 3.310371 l -1.121834,-0.0013 c -0.617008,-6.78e-4 -1.169039,-0.03128 -1.226734,-0.06792 -0.08015,-0.0509 -0.110116,-0.91461 -0.127,-3.660536 l -0.0221,-3.593913 -0.701855,-0.04233 -0.701856,-0.04233 0.659522,-0.43945 c 1.93622,-1.290133 2.756214,-1.326283 3.130781,-0.138023 0.0781,0.24776 0.167543,0.450473 0.198765,0.450473 0.03122,0 0.543006,-0.291718 1.1373,-0.648262 0.936505,-0.561853 1.131637,-0.64749 1.463913,-0.642467 0.491138,0.0074 0.78316,0.22315 0.966101,0.713684 0.122715,0.32905 0.145025,0.887914 0.169333,4.241697 l 0.028,3.862714 -1.241835,0.02515 -1.241834,0.02515 z m -19.371096,3.2761 -0.359833,-0.03064 V 35.431428 31.798926 L 44.120729,31.774463 43.387593,31.75 44.209747,31.209613 c 0.923515,-0.60701 1.649447,-0.936285 2.07075,-0.93927 0.371801,-0.0026 0.803381,0.421103 0.950828,0.933549 0.05963,0.207226 0.119353,0.391415 0.132729,0.409308 0.01338,0.01789 0.529595,-0.267856 1.14715,-0.635 0.987001,-0.586783 1.170688,-0.666807 1.518472,-0.661524 0.521007,0.0079 0.782971,0.193445 0.971839,0.68829 0.139994,0.366791 0.157813,0.76491 0.182962,4.087881 0.01533,2.024833 0.0062,3.767908 -0.02032,3.8735 -0.04721,0.188085 -0.07224,0.191986 -1.231905,0.191986 -0.651046,0 -1.184287,-0.0095 -1.184979,-0.02117 -6.77e-4,-0.01164 -0.02279,-1.526116 -0.04911,-3.3655 -0.02759,-1.928006 -0.08422,-3.440611 -0.133737,-3.571671 -0.108576,-0.287402 -0.499139,-0.439914 -0.788699,-0.307982 -0.447536,0.203911 -0.466528,0.364804 -0.466528,3.952421 v 3.306844 l -0.867833,-0.01303 c -0.477308,-0.0072 -1.029758,-0.02682 -1.227667,-0.04367 z"
       id="path3228" />
  </g>
</svg>
