<?xml version="1.0" encoding="UTF-8" standalone="no"?>
<!-- Created with Inkscape (http://www.inkscape.org/) -->

<svg
   width="163.84"
   height="57.279999"
   viewBox="0 0 43.349331 15.155333"
   version="1.1"
   id="svg5"
   inkscape:version="1.1.2 (0a00cf5339, 2022-02-04)"
   sodipodi:docname="canon.svg"
   xmlns:inkscape="http://www.inkscape.org/namespaces/inkscape"
   xmlns:sodipodi="http://sodipodi.sourceforge.net/DTD/sodipodi-0.dtd"
   xmlns="http://www.w3.org/2000/svg"
   xmlns:svg="http://www.w3.org/2000/svg">
  <sodipodi:namedview
     id="namedview7"
     pagecolor="#ffffff"
     bordercolor="#666666"
     borderopacity="1.0"
     inkscape:pageshadow="2"
     inkscape:pageopacity="0.0"
     inkscape:pagecheckerboard="0"
     inkscape:document-units="px"
     showgrid="false"
     units="px"
     width="1200px"
     inkscape:zoom="2.7345145"
     inkscape:cx="95.446559"
     inkscape:cy="23.953064"
     inkscape:window-width="1366"
     inkscape:window-height="670"
     inkscape:window-x="0"
     inkscape:window-y="28"
     inkscape:window-maximized="1"
     inkscape:current-layer="layer1" />
  <defs
     id="defs2" />
  <g
     inkscape:label="Layer 1"
     inkscape:groupmode="layer"
     id="layer1"
     transform="translate(-11.165738,-26.289)">
    <path
       style="display:inline;fill:#ed3237;fill-opacity:1;stroke:none;stroke-width:0.264583px;stroke-linecap:butt;stroke-linejoin:miter;stroke-opacity:1"
       d="m 18.731789,33.892965 1.801363,-3.854379 c -1.655526,-1.166853 -2.561241,-0.677241 -3.646469,0 -1.938738,1.851936 -1.972099,4.066239 -0.93809,6.530875 1.152779,2.238879 4.215543,2.703519 5.752593,-0.187165 l 0.262382,0.589118 c -1.10285,1.376214 -2.243711,2.639529 -4.750831,2.639529 -2.183553,0 -5.287059,-1.864367 -5.287059,-5.137859 0,-2.715392 1.206954,-5.201379 3.673562,-5.931958 4.002641,-0.79434 5.016075,0.522985 6.667673,2.61971 z"
       id="path910"
       sodipodi:nodetypes="ccccccccccc" />
    <path
       style="display:inline;fill:#ed3237;fill-opacity:1;stroke:none;stroke-width:0.264583px;stroke-linecap:butt;stroke-linejoin:miter;stroke-opacity:1"
       d="m 23.285021,31.829984 3.235535,-1.629329 c 1.239129,-0.444275 2.451814,0.79571 2.751149,2.186622 l 1.339207,6.884577 h -2.465316 l -0.314703,-1.490189 c -0.600578,0.894472 -1.68451,1.734889 -3.091503,1.734889 -1.377121,0 -2.546545,-1.821434 -2.546545,-3.254565 0,-0.847399 1.021597,-2.794713 2.706937,-2.797169 0.77576,-0.0038 1.383086,0.19517 2.154718,0.811807 l -1.042629,0.508701 c -0.600495,0.0052 -1.166187,0.806659 -1.188229,1.58574 0.03337,0.75084 0.563768,1.889557 1.45166,1.785753 0.823032,-0.139194 1.229232,-0.731864 1.24294,-1.788445 -0.01315,-0.862319 -0.590602,-1.583048 -1.506371,-1.583048 L 27.0545,34.276627 26.520278,31.878852 Z"
       id="path2158"
       sodipodi:nodetypes="cccccccccccccccccc" />
    <path
       style="display:inline;fill:#ed3237;fill-opacity:1;stroke:none;stroke-width:0.264583px;stroke-linecap:butt;stroke-linejoin:miter;stroke-opacity:1"
       d="m 29.790296,31.845936 h 1.564754 v 7.360277 h 2.701607 v -6.719747 c 0,-0.408428 0.281271,-0.616926 0.616926,-0.616926 0.415091,0 0.565457,0.29313 0.565457,0.565456 v 6.811226 h 2.706457 v -7.725094 c 0,-0.641171 -0.889405,-1.712653 -1.96462,-1.134273 l -1.94609,1.159448 C 33.772548,30.12468 33.106844,29.765044 31.354446,30.752318 Z"
       id="path3733"
       sodipodi:nodetypes="cccccccccccccc" />
    <path
       style="display:inline;fill:#ed3237;fill-opacity:1;stroke:none;stroke-width:0.264583px;stroke-linecap:butt;stroke-linejoin:miter;stroke-opacity:1"
       d="m 41.499444,34.899505 -2.848647,-0.115373 c 0,-2.204284 1.542885,-4.595458 3.214087,-4.595458 2.191742,0 3.962368,1.679999 3.962368,4.606059 0,2.645206 -1.559994,4.692196 -3.721661,4.692196 -2.176387,0 -3.454794,-2.554912 -3.454794,-4.702797 l 2.848647,0.115373 0.638032,3.038346 c 0.18689,0.767104 0.724541,0.93098 1.148825,0.759443 0.342435,-0.214822 0.537011,-0.550905 0.411706,-1.144689 L 42.39558,31.570869 c -0.159265,-0.520378 -0.448593,-0.719671 -0.937136,-0.66098 -0.347613,0.05721 -0.634411,0.63013 -0.510172,1.340837 z"
       id="path4321"
       sodipodi:nodetypes="cccccccccccccc" />
    <path
       style="display:inline;fill:#ed3237;fill-opacity:1;stroke:none;stroke-width:0.264583px;stroke-linecap:butt;stroke-linejoin:miter;stroke-opacity:1"
       d="m 45.667257,31.893192 h 1.564754 v 7.360277 h 2.701607 v -6.719747 c 0,-0.408428 0.281271,-0.616926 0.616926,-0.616926 0.415091,0 0.565457,0.29313 0.565457,0.565456 v 6.811226 h 2.706457 v -7.725094 c 0,-0.641171 -0.889405,-1.712653 -1.96462,-1.134273 l -1.94609,1.159448 C 49.649509,30.171936 48.983805,29.8123 47.231407,30.799574 Z"
       id="path5628"
       sodipodi:nodetypes="cccccccccccccc" />
  </g>
</svg>
