<?xml version="1.0" encoding="UTF-8" standalone="no"?>
<!-- Created with Inkscape (http://www.inkscape.org/) -->

<svg
   width="163.84"
   height="57.279999"
   viewBox="0 0 43.349331 15.155333"
   version="1.1"
   id="svg5"
   inkscape:version="1.1.2 (0a00cf5339, 2022-02-04)"
   sodipodi:docname="epson.svg"
   xmlns:inkscape="http://www.inkscape.org/namespaces/inkscape"
   xmlns:sodipodi="http://sodipodi.sourceforge.net/DTD/sodipodi-0.dtd"
   xmlns="http://www.w3.org/2000/svg"
   xmlns:svg="http://www.w3.org/2000/svg">
  <sodipodi:namedview
     id="namedview7"
     pagecolor="#ffffff"
     bordercolor="#666666"
     borderopacity="1.0"
     inkscape:pageshadow="2"
     inkscape:pageopacity="0.0"
     inkscape:pagecheckerboard="0"
     inkscape:document-units="px"
     showgrid="false"
     units="px"
     width="1200px"
     inkscape:zoom="1.9335937"
     inkscape:cx="199.62828"
     inkscape:cy="46.286869"
     inkscape:window-width="1366"
     inkscape:window-height="670"
     inkscape:window-x="0"
     inkscape:window-y="28"
     inkscape:window-maximized="1"
     inkscape:current-layer="layer1" />
  <defs
     id="defs2" />
  <g
     inkscape:label="Layer 1"
     inkscape:groupmode="layer"
     id="layer1"
     transform="translate(-11.165738,-26.289)">
    <path
       style="display:inline;fill:#003f98;fill-opacity:1;stroke:none;stroke-width:0.264583px;stroke-linecap:butt;stroke-linejoin:miter;stroke-opacity:1"
       d="m 11.955465,29.437479 h 7.098183 v 1.604459 H 13.92916 v 1.964022 h 4.727965 v 1.500628 h -4.731314 v 2.201045 h 5.090255 v 1.656637 h -7.089822 z"
       id="path961" />
    <path
       style="display:inline;fill:#003f98;fill-opacity:1;stroke:none;stroke-width:0.264583px;stroke-linecap:butt;stroke-linejoin:miter;stroke-opacity:1"
       d="m 19.890764,29.408959 1.964588,1.571578 v 3.075907 l 2.311526,-0.03086 c 0.856896,0 1.635969,-0.728497 1.635969,-1.540186 0,-0.888793 -0.808721,-1.514492 -1.88771,-1.514492 l -2.059785,0.0096 -1.964588,-1.571578 4.324502,-0.0089 c 2.510307,0 3.4758,1.20799 3.4758,3.195888 0,1.729472 -1.243779,3.064265 -3.844593,3.064265 h -1.991964 v 2.673037 h -1.961103 z"
       id="path1029"
       sodipodi:nodetypes="ccccccccccccccc" />
    <path
       style="display:inline;fill:#003f98;fill-opacity:1;stroke:none;stroke-width:0.264583px;stroke-linecap:butt;stroke-linejoin:miter;stroke-opacity:1"
       d="m 33.780317,32.061158 h 2.001443 c 0,-1.535225 -1.235121,-2.915793 -3.819948,-2.915793 -2.238823,0 -3.643462,1.195402 -3.643462,2.698059 0,1.765401 1.250515,2.087112 3.378189,2.662672 1.951128,0.456811 2.446024,0.904732 2.446024,1.358524 0,0.749336 -0.72335,1.136157 -2.005088,1.136157 -1.65558,0 -2.056439,-0.775018 -2.173338,-1.630489 h -2.019792 c 0,1.29072 0.915874,3.187986 4.126529,3.187986 2.774147,0 4.010536,-1.444787 4.010536,-2.799123 0,-1.504056 -1.179828,-2.393911 -3.10127,-2.749392 -1.696879,-0.3535 -2.745872,-0.69859 -2.745872,-1.293618 0,-0.571627 0.726759,-1.034422 1.620212,-1.034422 1.231348,0 1.925837,0.612369 1.925837,1.379439 z"
       id="path2240"
       sodipodi:nodetypes="ccccccccccccccc" />
    <path
       style="display:inline;fill:#003f98;fill-opacity:1;stroke:none;stroke-width:0.264583px;stroke-linecap:butt;stroke-linejoin:miter;stroke-opacity:1"
       d="m 40.85756,29.1675 c -2.90039,0 -4.417511,2.248157 -4.417511,4.766845 0,3.0829 2.094075,4.621105 4.317945,4.621105 2.379043,0 4.652857,-1.446903 4.652857,-4.436528 0,-2.855864 -1.436419,-4.951422 -4.553291,-4.951422 l -0.08863,1.628614 c 1.603051,0 2.671569,1.169213 2.671569,2.929528 0,1.684843 -0.61958,3.258574 -2.589747,3.258574 -1.504169,0 -2.4345,-1.424357 -2.4345,-3.148252 0,-1.734671 1.127395,-3.075597 2.352678,-3.03985 z"
       id="path3550"
       sodipodi:nodetypes="ccccccccccc" />
    <path
       style="display:inline;fill:#003f98;fill-opacity:1;stroke:none;stroke-width:0.264583px;stroke-linecap:butt;stroke-linejoin:miter;stroke-opacity:1"
       d="m 46.140104,38.328243 h 1.947838 V 32.13931 l 3.733493,6.188581 h 2.004738 v -8.917765 h -2.01521 l 0.12831,6.106112 -3.75017,-6.092391 h -2.066946 z"
       id="path4823" />
  </g>
</svg>
