<?xml version="1.0" encoding="UTF-8" standalone="no"?>
<!-- Created with Inkscape (http://www.inkscape.org/) -->

<svg
   width="163.84"
   height="57.279999"
   viewBox="0 0 43.349331 15.155333"
   version="1.1"
   id="svg5"
   inkscape:version="1.1.2 (0a00cf5339, 2022-02-04)"
   sodipodi:docname="epson.svg"
   xmlns:inkscape="http://www.inkscape.org/namespaces/inkscape"
   xmlns:sodipodi="http://sodipodi.sourceforge.net/DTD/sodipodi-0.dtd"
   xmlns="http://www.w3.org/2000/svg"
   xmlns:svg="http://www.w3.org/2000/svg">
  <sodipodi:namedview
     id="namedview7"
     pagecolor="#ffffff"
     bordercolor="#666666"
     borderopacity="1.0"
     inkscape:pageshadow="2"
     inkscape:pageopacity="0.0"
     inkscape:pagecheckerboard="0"
     inkscape:document-units="px"
     showgrid="false"
     units="px"
     width="1200px"
     inkscape:zoom="1.8007812"
     inkscape:cx="34.707158"
     inkscape:cy="28.598698"
     inkscape:window-width="1366"
     inkscape:window-height="670"
     inkscape:window-x="0"
     inkscape:window-y="28"
     inkscape:window-maximized="1"
     inkscape:current-layer="layer1" />
  <defs
     id="defs2" />
  <g
     inkscape:label="Layer 1"
     inkscape:groupmode="layer"
     id="layer1"
     transform="translate(-12.118537,-26.289)">
    <path
       style="display:inline;fill:#003f98;fill-opacity:1;stroke-width:0.0846667"
       d="M 41.119894,38.474644 C 40.01085,38.306075 39.044,37.783205 38.448667,37.030051 c -1.131361,-1.431278 -1.336623,-3.820375 -0.479058,-5.575885 0.501692,-1.027006 1.57242,-1.858733 2.726592,-2.117978 0.605697,-0.13605 1.942181,-0.113526 2.530996,0.04265 1.917581,0.508629 3.093731,2.214775 3.093731,4.487823 0,2.261587 -1.176773,3.987029 -3.051397,4.474107 -0.644646,0.167496 -1.555298,0.224208 -2.149637,0.133871 z m 1.605121,-1.612092 c 0.704427,-0.223632 1.288564,-0.918314 1.520301,-1.808011 0.147794,-0.567421 0.169427,-1.681623 0.04327,-2.228547 -0.199749,-0.865956 -0.732743,-1.591932 -1.386873,-1.889021 -0.403565,-0.183288 -1.332852,-0.214073 -1.84353,-0.06107 -0.425635,0.127523 -1.04069,0.668556 -1.270098,1.117242 -0.534763,1.045913 -0.547816,2.667068 -0.02974,3.693855 0.188025,0.372649 0.689722,0.905362 1.011644,1.074183 0.490606,0.257281 1.327264,0.300662 1.955029,0.101369 z M 31.572621,38.349345 C 30.136975,38.001331 29.14069,37.010961 28.995563,35.787587 l -0.04709,-0.396921 0.957549,0.01704 0.957549,0.01704 0.09549,0.323402 c 0.153808,0.520914 0.36467,0.766094 0.873967,1.016201 0.42621,0.209304 0.571038,0.234986 1.325173,0.234986 0.717874,0 0.908194,-0.0303 1.251143,-0.199171 0.883179,-0.434892 0.872108,-1.333602 -0.02205,-1.789767 -0.176679,-0.09014 -0.944603,-0.31915 -1.706498,-0.508923 -1.649996,-0.410981 -2.404978,-0.73612 -2.862939,-1.23295 -0.79437,-0.86179 -0.652938,-2.328198 0.305734,-3.169923 0.665556,-0.584365 1.592046,-0.860698 2.865275,-0.85459 1.213076,0.0058 2.208316,0.310632 2.891662,0.885631 0.349431,0.294026 0.704798,0.986847 0.764427,1.490318 l 0.0505,0.426375 h -0.985459 c -0.96542,0 -0.985467,-0.0039 -0.985777,-0.1905 -9.91e-4,-0.59666 -0.70279,-1.083294 -1.650683,-1.144601 -1.093666,-0.07073 -1.820333,0.309761 -1.820333,0.953154 0,0.678511 0.221745,0.801399 2.4239,1.343292 0.839204,0.206506 1.724295,0.476038 1.96687,0.598961 0.958369,0.485642 1.426499,1.283833 1.345411,2.294012 -0.09777,1.217979 -0.987067,2.106907 -2.453726,2.452702 -0.66705,0.15727 -2.306871,0.155052 -2.963037,-0.004 z m -18.656776,-0.11529 c -0.01942,-0.0194 -0.03531,-1.991077 -0.03531,-4.3815 v -4.346222 h 3.556 3.556 v 0.762 0.762 H 17.410203 14.82787 V 32.004 32.977667 h 2.413 2.413 v 0.762 0.761999 h -2.413 -2.413 V 35.602333 36.703 h 2.582333 2.582334 l 1.3e-5,0.783166 1.3e-5,0.783167 h -3.520705 c -1.936388,0 -3.536594,-0.01588 -3.556013,-0.03528 z m 8.007254,0.05645 c -4.23e-4,-0.01164 -0.0099,-1.992842 -0.02117,-4.402667 l -0.0204,-4.3815 2.328333,0.0013 c 1.776443,9.55e-4 2.456822,0.03154 2.87041,0.12903 1.085869,0.255959 1.857128,0.800392 2.274238,1.605386 0.314242,0.606467 0.364068,1.666924 0.109983,2.340787 -0.245228,0.650376 -0.744612,1.194232 -1.385588,1.50898 -0.777997,0.382033 -1.517097,0.507406 -3.00121,0.509096 l -1.291167,0.0015 V 36.957 38.311666 h -0.931333 c -0.512233,0 -0.93168,-0.0095 -0.932104,-0.02117 z m 4.630426,-4.338989 c 0.776963,-0.230733 1.135,-0.667396 1.140606,-1.391085 0.0052,-0.676941 -0.349345,-1.163322 -1.020817,-1.400231 -0.267522,-0.09439 -0.712086,-0.129862 -1.627423,-0.129862 h -1.259355 v 1.524 1.524 h 1.169967 c 0.792726,0 1.307664,-0.04089 1.597022,-0.126822 z m 21.61701,-0.03965 v -4.405531 l 0.994833,4.91e-4 0.994834,4.91e-4 1.377017,2.156063 c 0.757359,1.185834 1.589333,2.557211 1.848832,3.047505 0.259498,0.490294 0.480557,0.891444 0.491242,0.891444 0.01068,0 0.0024,-1.3716 -0.0184,-3.048 l -0.03783,-3.048 h 0.985497 0.985497 l -0.02193,4.3815 -0.02193,4.3815 -0.985316,0.02377 -0.985317,0.02377 -1.394756,-2.182772 C 50.615697,34.93358 49.769847,33.541758 49.503144,33.041167 49.236441,32.540575 49.011638,32.131 49.003581,32.131 c -0.0081,0 -0.01421,1.381125 -0.01368,3.069166 l 9.65e-4,3.069167 -0.910167,0.02403 -0.910166,0.02403 v -4.405531 z"
       id="path4703" />
  </g>
</svg>
