<?xml version="1.0" encoding="UTF-8" standalone="no"?>
<!-- Created with Inkscape (http://www.inkscape.org/) -->

<svg
   width="121"
   height="57.279999"
   viewBox="0 0 32.014582 15.155333"
   version="1.1"
   id="svg5"
   inkscape:version="1.1.2 (0a00cf5339, 2022-02-04)"
   sodipodi:docname="hp.svg"
   xmlns:inkscape="http://www.inkscape.org/namespaces/inkscape"
   xmlns:sodipodi="http://sodipodi.sourceforge.net/DTD/sodipodi-0.dtd"
   xmlns="http://www.w3.org/2000/svg"
   xmlns:svg="http://www.w3.org/2000/svg">
  <sodipodi:namedview
     id="namedview7"
     pagecolor="#ffffff"
     bordercolor="#666666"
     borderopacity="1.0"
     inkscape:pageshadow="2"
     inkscape:pageopacity="0.0"
     inkscape:pagecheckerboard="0"
     inkscape:document-units="px"
     showgrid="false"
     units="px"
     width="1200px"
     inkscape:zoom="2.5466893"
     inkscape:cx="52.813667"
     inkscape:cy="24.149"
     inkscape:window-width="1366"
     inkscape:window-height="670"
     inkscape:window-x="0"
     inkscape:window-y="28"
     inkscape:window-maximized="1"
     inkscape:current-layer="layer1" />
  <defs
     id="defs2" />
  <g
     inkscape:label="Layer 1"
     inkscape:groupmode="layer"
     id="layer1"
     transform="translate(-12.192,-26.289)">
    <path
       style="display:inline;fill:#005699;fill-opacity:1;stroke-width:0.0846667"
       d="M 13.867871,41.308611 C 13.303842,41.157717 12.867512,40.827875 12.640204,40.380561 12.47546,40.056364 12.470871,39.879812 12.470871,33.866666 V 27.686 l 0.195011,-0.340121 c 0.107257,-0.187066 0.325097,-0.429257 0.48409,-0.5382 0.629803,-0.431548 0.551946,-0.426324 6.412951,-0.430296 l 5.483385,-0.0037 -0.249735,0.494721 c -0.242901,0.481185 -0.265522,0.500019 -0.826719,0.688352 -3.59621,1.206853 -5.661019,4.419236 -4.858191,7.558265 0.589944,2.306655 2.689764,4.247489 5.340417,4.936072 0.302201,0.0785 0.597988,0.156555 0.657304,0.173446 0.07597,0.02163 0.01936,0.206417 -0.191565,0.625259 l -0.299411,0.594551 -5.142435,-0.0056 c -4.246103,-0.0046 -5.223602,-0.02729 -5.608102,-0.13015 z m 12.249798,-0.689778 c 0.211699,-0.454025 0.590098,-1.258028 0.840888,-1.786674 0.250788,-0.528645 0.45598,-0.973618 0.45598,-0.988828 0,-0.01521 0.24765,-0.548852 0.550333,-1.18587 0.302683,-0.637018 0.550333,-1.169593 0.550333,-1.183498 0,-0.01391 0.24765,-0.545249 0.550334,-1.180763 0.302683,-0.635514 0.550333,-1.167892 0.550333,-1.183063 0,-0.01517 0.228817,-0.510275 0.508484,-1.100231 l 0.508484,-1.072647 2.067858,0.02537 c 1.947797,0.0239 2.081723,0.0357 2.306682,0.203352 0.131354,0.09789 0.274546,0.278271 0.318205,0.400848 0.08697,0.244163 -0.04498,0.590045 -0.974236,2.553836 -0.264421,0.5588 -0.636036,1.350509 -0.825809,1.759353 -0.454926,0.980076 -0.527623,1.013391 -2.312716,1.059851 l -1.324048,0.03446 -1.040529,2.235001 -1.040529,2.235002 H 26.770239 25.732762 Z M 31.87165,35.1155 c 0.257309,-0.547159 0.537541,-1.147234 0.622737,-1.3335 0.0852,-0.186267 0.327106,-0.709456 0.537575,-1.162642 0.21047,-0.453187 0.356625,-0.837401 0.32479,-0.85381 -0.16164,-0.08332 -0.838954,-0.05287 -0.969835,0.0436 -0.141192,0.104068 -0.393098,0.615105 -1.588058,3.221684 l -0.494886,1.0795 h 0.549921 0.549921 z m -2.604596,5.799666 0.23603,-0.529166 0.725969,-0.05589 c 2.287843,-0.176124 4.170322,-1.022693 5.574886,-2.507082 0.727435,-0.768776 1.102845,-1.364919 1.407259,-2.234702 0.264957,-0.75704 0.350593,-1.933742 0.197398,-2.712414 -0.604449,-3.072356 -3.901519,-5.460479 -7.590177,-5.497692 l -0.775674,-0.0078 0.194164,-0.477199 0.194162,-0.477199 h 6.675233 6.675232 l 0.428748,0.237716 c 0.258936,0.143565 0.518821,0.376628 0.656166,0.588448 l 0.227419,0.350731 -3.39e-4,6.311886 c -3.38e-4,6.064726 -0.0067,6.322277 -0.162124,6.577245 -0.240648,0.394654 -0.671868,0.685187 -1.234483,0.83173 -0.430895,0.11224 -1.425668,0.130577 -7.083598,0.130577 h -6.5823 z m -7.86385,-4.248652 c 0,-0.02293 0.16559,-0.395582 0.367978,-0.828107 0.202389,-0.432523 0.474902,-1.015007 0.605585,-1.294407 0.130684,-0.2794 0.441344,-0.941375 0.690355,-1.471056 0.249011,-0.529681 0.452748,-0.974654 0.452748,-0.988829 0,-0.01417 0.24765,-0.546969 0.550334,-1.183987 0.302683,-0.637019 0.550333,-1.169498 0.550333,-1.183286 0,-0.01379 0.25868,-0.57162 0.574846,-1.239623 0.316165,-0.668004 0.66806,-1.414577 0.781988,-1.659052 l 0.207142,-0.4445 h 1.034469 1.034468 l -0.325108,0.6985 c -0.178809,0.384175 -0.653315,1.402231 -1.054456,2.262348 -0.401142,0.860116 -0.729349,1.574491 -0.729349,1.5875 0,0.01301 0.371726,0.02365 0.826059,0.02365 0.935812,0 1.315086,0.08327 1.600498,0.351403 0.382854,0.359673 0.329705,0.553938 -0.818837,2.99293 -0.153501,0.325966 -0.462381,0.992716 -0.6864,1.481666 l -0.407309,0.889 -1.025555,0.02383 -1.025555,0.02383 0.05925,-0.193159 c 0.03258,-0.106237 0.08765,-0.231258 0.122362,-0.277825 0.03472,-0.04657 0.216846,-0.427567 0.404737,-0.846667 0.18789,-0.4191 0.539723,-1.1811 0.781851,-1.693333 0.504582,-1.067464 0.846236,-1.825302 0.846236,-1.87707 0,-0.01962 -0.250436,-0.0244 -0.556524,-0.01063 l -0.556525,0.02504 -1.123422,2.412999 -1.123421,2.413 -1.029387,0.02377 c -0.566163,0.01308 -1.029387,0.005 -1.029387,-0.01792 z"
       id="path6877" />
  </g>
</svg>
