<?xml version="1.0" encoding="UTF-8" standalone="no"?>
<!-- Created with Inkscape (http://www.inkscape.org/) -->

<svg
   width="162.82851"
   height="43.506733"
   viewBox="0 0 43.081708 11.511156"
   version="1.1"
   id="svg5"
   inkscape:version="1.1.2 (0a00cf5339, 2022-02-04)"
   sodipodi:docname="ricoh.svg"
   xmlns:inkscape="http://www.inkscape.org/namespaces/inkscape"
   xmlns:sodipodi="http://sodipodi.sourceforge.net/DTD/sodipodi-0.dtd"
   xmlns="http://www.w3.org/2000/svg"
   xmlns:svg="http://www.w3.org/2000/svg">
  <sodipodi:namedview
     id="namedview7"
     pagecolor="#ffffff"
     bordercolor="#666666"
     borderopacity="1.0"
     inkscape:pageshadow="2"
     inkscape:pageopacity="0.0"
     inkscape:pagecheckerboard="0"
     inkscape:document-units="px"
     showgrid="false"
     units="px"
     width="1200px"
     inkscape:zoom="1.8007812"
     inkscape:cx="141.04989"
     inkscape:cy="30.819957"
     inkscape:window-width="1366"
     inkscape:window-height="670"
     inkscape:window-x="0"
     inkscape:window-y="28"
     inkscape:window-maximized="1"
     inkscape:current-layer="layer1" />
  <defs
     id="defs2" />
  <g
     inkscape:label="Layer 1"
     inkscape:groupmode="layer"
     id="layer1"
     transform="translate(-9.2172604,-25.726882)">
    <path
       style="display:inline;fill:#d7063b;fill-opacity:1;stroke-width:0.0846667"
       d="m 27.405736,37.10995 c -1.756788,-0.378676 -3.046239,-1.646668 -3.654055,-3.593246 -0.174614,-0.559214 -0.198105,-0.80173 -0.196833,-2.032 0.0011,-1.081362 0.03587,-1.521343 0.153807,-1.947333 0.525431,-1.897844 1.821641,-3.235654 3.566703,-3.68117 0.668902,-0.170771 2.223601,-0.169776 2.8825,0.0018 0.582247,0.151656 1.565284,0.615926 1.623085,0.766553 0.04598,0.119824 -0.553619,1.558104 -0.649554,1.558104 -0.03534,0 -0.108217,-0.05297 -0.161952,-0.117721 -0.341472,-0.411449 -1.872119,-0.6851 -2.689478,-0.480827 -0.912203,0.227976 -1.641458,0.950853 -2.043471,2.025601 -0.279154,0.746294 -0.354149,2.305696 -0.152301,3.16687 0.547593,2.336272 2.452972,3.272431 4.607948,2.263995 0.297548,-0.139238 0.566233,-0.237563 0.59708,-0.2185 0.03085,0.01906 0.186186,0.303596 0.345199,0.632294 0.286029,0.591249 0.28739,0.599537 0.127431,0.776289 -0.242122,0.267541 -1.450714,0.817902 -2.022159,0.920837 -0.67255,0.121148 -1.660647,0.10354 -2.33395,-0.04159 z m 8.810312,3.39e-4 c -1.737482,-0.376751 -3.028209,-1.700958 -3.524398,-3.61582 -0.354074,-1.366412 -0.317303,-3.076463 0.09403,-4.373231 0.532623,-1.679127 1.716877,-2.847632 3.312859,-3.268804 0.632589,-0.166938 1.956729,-0.167499 2.589609,-0.0011 1.0867,0.285722 2.04483,0.966694 2.656331,1.887937 0.177331,0.267152 0.456692,0.866732 0.620804,1.332398 0.297658,0.844607 0.298386,0.850272 0.298916,2.328334 5.92e-4,1.700643 -0.08785,2.156221 -0.635788,3.274347 -0.958669,1.956268 -3.125988,2.931711 -5.412368,2.435937 z m 2.031501,-1.820898 c 0.602025,-0.301136 1.010666,-0.85351 1.371061,-1.853314 0.129022,-0.357929 0.179306,-0.763226 0.211254,-1.702747 0.03622,-1.065136 0.01765,-1.329004 -0.13637,-1.93808 -0.265213,-1.048775 -0.758469,-1.810762 -1.376138,-2.125873 -0.755873,-0.385618 -1.59404,-0.285705 -2.219141,0.264531 -1.414426,1.245027 -1.646211,4.749854 -0.434924,6.576475 0.613725,0.925496 1.660544,1.241053 2.584258,0.779008 z M 9.2413053,36.882204 c -0.022248,-0.05821 -0.030577,-2.544234 -0.018509,-5.5245 l 0.021941,-5.418667 0.6349999,-0.06874 c 0.3492498,-0.03781 1.5874998,-0.07591 2.7516668,-0.08467 1.976056,-0.01487 2.156375,-0.0034 2.714417,0.172124 1.462099,0.459975 2.112608,1.437016 2.101439,3.156281 -0.004,0.613993 -0.04865,0.91612 -0.188718,1.276718 -0.34179,0.879905 -1.068649,1.485177 -2.031493,1.69167 -0.240155,0.0515 -0.436645,0.114429 -0.436645,0.139833 0,0.0254 0.241596,0.302294 0.536881,0.615312 0.295285,0.313017 0.770725,0.876312 1.056534,1.251766 0.57196,0.751357 1.877918,2.718789 1.877918,2.829091 0,0.03829 -0.608958,0.06961 -1.353241,0.06961 h -1.35324 L 15.342664,36.568505 C 14.795322,35.48838 13.832769,34.011729 12.889199,32.80465 12.277536,32.022168 12.250404,31.968449 12.250404,31.53989 v -0.447568 l 0.823056,-0.09632 c 1.556129,-0.182099 2.165179,-0.711078 2.165179,-1.880527 0,-0.784327 -0.233296,-1.195252 -0.849839,-1.496898 -0.437025,-0.213817 -0.492541,-0.22008 -1.582112,-0.178504 -0.621056,0.0237 -1.171739,0.06938 -1.223739,0.101521 -0.06778,0.04189 -0.09455,1.387458 -0.09455,4.752435 v 4.694003 H 10.38508 c -0.8046409,0 -1.1142744,-0.02865 -1.1437747,-0.105833 z m 10.2904317,-5.3975 v -5.503333 h 1.227666 1.227667 v 5.503333 5.503333 h -1.227667 -1.227666 z m 24.383998,0 v -5.503333 h 1.143 1.143 v 2.116666 2.116667 h 1.862667 1.862666 v -2.116667 -2.116666 h 1.185951 1.185951 l -0.02178,5.482166 -0.02178,5.482167 -1.164167,0.02356 -1.164167,0.02356 V 34.61976 32.246704 H 48.06441 46.201743 v 2.370666 2.370667 h -1.143 -1.143 z"
       id="path7959" />
  </g>
</svg>
