<?xml version="1.0" encoding="UTF-8" standalone="no"?>
<!-- Created with Inkscape (http://www.inkscape.org/) -->

<svg
   width="163.84"
   height="57.279999"
   viewBox="0 0 43.349331 15.155333"
   version="1.1"
   id="svg5"
   inkscape:version="1.1.2 (0a00cf5339, 2022-02-04)"
   sodipodi:docname="samsung.svg"
   xmlns:inkscape="http://www.inkscape.org/namespaces/inkscape"
   xmlns:sodipodi="http://sodipodi.sourceforge.net/DTD/sodipodi-0.dtd"
   xmlns="http://www.w3.org/2000/svg"
   xmlns:svg="http://www.w3.org/2000/svg">
  <sodipodi:namedview
     id="namedview7"
     pagecolor="#ffffff"
     bordercolor="#666666"
     borderopacity="1.0"
     inkscape:pageshadow="2"
     inkscape:pageopacity="0.0"
     inkscape:pagecheckerboard="0"
     inkscape:document-units="px"
     showgrid="false"
     units="px"
     width="1200px"
     inkscape:object-paths="true"
     inkscape:zoom="1.8007812"
     inkscape:cx="33.596529"
     inkscape:cy="16.381779"
     inkscape:window-width="1366"
     inkscape:window-height="670"
     inkscape:window-x="0"
     inkscape:window-y="28"
     inkscape:window-maximized="1"
     inkscape:current-layer="layer1" />
  <defs
     id="defs2" />
  <g
     inkscape:label="Layer 1"
     inkscape:groupmode="layer"
     id="layer1"
     transform="translate(-12.118537,-26.289)">
    <path
       style="fill:#ffffff;fill-opacity:1;stroke:none;stroke-width:0.264583px;stroke-linecap:butt;stroke-linejoin:miter;stroke-opacity:1"
       d="m 19.54511,31.431575 -1.052614,0.446049 -1.531034,2.035184 v 3.09949 h 28.695092 l 2.65698,-0.80681 1.091427,-0.521383 2.250797,-1.753931 V 30.920403 H 22.015356 Z"
       id="path10853" />
    <path
       style="display:inline;fill:#034ea2;fill-opacity:1;stroke-width:0.0846667"
       d="m 20.246537,40.929439 c -1.418445,-0.10763 -2.925964,-0.331947 -4.010243,-0.596718 -4.95448,-1.20984 -5.42756,-3.758196 -1.217931,-6.56066 0.71246,-0.474304 3.315182,-1.895061 3.471611,-1.895061 0.02474,0 -0.02712,0.141406 -0.115231,0.314235 -0.388861,0.762728 -0.05044,1.361512 1.152127,2.038492 0.691864,0.389482 0.889496,0.652681 0.738663,0.983724 -0.07325,0.160775 -0.163983,0.219549 -0.338915,0.219549 -0.322846,0 -0.442081,-0.141581 -0.442081,-0.524934 v -0.321733 h -0.635 -0.635 v 0.347038 c 0,0.475749 0.212829,0.88348 0.580513,1.112128 0.427293,0.265714 1.686278,0.280248 2.109452,0.02435 0.40786,-0.246637 0.646974,-0.794996 0.582829,-1.336597 -0.06441,-0.543816 -0.426889,-0.941019 -1.25669,-1.377067 -0.659507,-0.346562 -0.891664,-0.614537 -0.754474,-0.87088 0.214765,-0.401291 0.77037,-0.225183 0.77037,0.244182 v 0.255916 l 0.5715,-0.02503 0.5715,-0.02504 -0.02325,-0.381 c -0.0419,-0.68643 -0.448644,-1.020351 -1.322295,-1.085538 l -0.498882,-0.03722 0.287215,-0.120947 c 0.778107,-0.327664 3.153363,-1.149996 4.435882,-1.535736 4.929943,-1.482766 10.077332,-2.433595 15.747999,-2.908979 1.95576,-0.163955 6.818118,-0.137031 8.382,0.04641 3.245713,0.380725 5.378287,1.080028 6.395412,2.097153 1.503236,1.503236 0.304999,3.571569 -3.252107,5.613612 -1.621695,0.930972 -2.453418,1.296891 -2.065047,0.908521 0.06584,-0.06584 0.116363,-0.448542 0.136365,-1.032934 l 0.03178,-0.928342 h -0.8137 -0.813699 V 33.909 c 0,0.3048 0.02117,0.338666 0.211666,0.338666 0.199153,0 0.211667,0.02653 0.211667,0.448734 0,0.500395 -0.0984,0.651933 -0.423333,0.651933 -0.393833,0 -0.423334,-0.107175 -0.423334,-1.537954 0,-1.23298 0.01249,-1.341438 0.163768,-1.4224 0.363566,-0.194575 0.682899,0.0048 0.682899,0.426402 v 0.247952 h 0.603678 0.603677 l -0.04403,-0.390672 C 49.515178,31.884905 48.990317,31.496 48.017202,31.496 c -0.764152,0 -1.217334,0.199009 -1.452742,0.637954 -0.133998,0.249852 -0.15588,0.493332 -0.155608,1.731392 2.54e-4,1.295329 0.01754,1.468908 0.171082,1.720743 0.214236,0.351388 0.752526,0.602935 1.310268,0.612299 l 0.423333,0.0071 -0.931333,0.374461 c -4.733333,1.90313 -11.786996,3.525936 -17.991666,4.139268 -2.968969,0.293483 -6.865948,0.383072 -9.143999,0.210215 z m 15.160797,-4.870811 c 0.473298,-0.277154 0.629535,-0.569377 0.629535,-1.177468 0,-0.50125 -0.02097,-0.561262 -0.296333,-0.848059 -0.162984,-0.16975 -0.56924,-0.459239 -0.902792,-0.643307 -0.717631,-0.396021 -0.811621,-0.494093 -0.775493,-0.809174 0.02176,-0.189762 0.07548,-0.243479 0.265238,-0.265238 0.310228,-0.03557 0.481713,0.114842 0.481713,0.42252 v 0.247501 l 0.5715,-0.02503 0.5715,-0.02504 -0.02504,-0.380605 c -0.0504,-0.766048 -0.467542,-1.059358 -1.498961,-1.053974 -1.096094,0.0057 -1.565378,0.390817 -1.566016,1.285077 -4.23e-4,0.563401 0.206312,0.80993 1.181283,1.408802 0.388636,0.238718 0.744574,0.494811 0.790973,0.569095 0.132552,0.212214 5.92e-4,0.574904 -0.23031,0.632848 -0.346159,0.08688 -0.55693,-0.09272 -0.55693,-0.474555 v -0.335688 h -0.634999 -0.635 l 5.08e-4,0.232833 c 0.002,0.977558 0.651073,1.496091 1.791842,1.431429 0.350551,-0.01987 0.668227,-0.09266 0.837817,-0.191967 z m 4.22011,-0.01906 c 0.558667,-0.289337 0.605642,-0.498544 0.580448,-2.58508 l -0.02236,-1.851509 -0.550333,-3e-6 -0.550333,-4e-6 -0.02206,1.809178 c -0.01926,1.579832 -0.0401,1.822595 -0.164349,1.915012 -0.183705,0.136638 -0.293681,0.133494 -0.495909,-0.01418 -0.151246,-0.110444 -0.167724,-0.263129 -0.206682,-1.915083 l -0.04233,-1.79507 -0.550334,3.47e-4 -0.550333,3.47e-4 v 1.851231 c 0,1.943192 0.03794,2.166381 0.422476,2.48552 0.413675,0.34332 1.577255,0.397 2.152099,0.09928 z m -15.92333,-1.728406 c 0.148167,-0.989541 0.269027,-1.872191 0.268575,-1.961444 -0.0024,-0.485131 0.124683,0.128625 0.343358,1.657616 0.336369,2.351913 0.226595,2.102995 0.927436,2.102995 0.468465,0 0.591053,-0.02629 0.591053,-0.126772 0,-0.06973 -0.17145,-1.054219 -0.381,-2.187765 -0.20955,-1.133545 -0.381,-2.08732 -0.381,-2.1195 0,-0.03218 -0.466405,-0.04781 -1.036457,-0.03474 l -1.036458,0.02377 -0.397816,2.116667 c -0.2188,1.164166 -0.400094,2.164291 -0.402876,2.2225 -0.0036,0.0755 0.172772,0.105833 0.615365,0.105833 h 0.620424 z m 4.190312,0.127 c 0.03005,-0.919691 0.03007,-1.763849 3.6e-5,-1.875906 -0.03829,-0.142866 -0.02532,-0.185642 0.0434,-0.14317 0.0539,0.03331 0.098,0.138887 0.098,0.234608 0,0.09572 0.13335,0.878132 0.296334,1.738692 0.162983,0.86056 0.296333,1.599145 0.296333,1.641299 0,0.122866 1.160503,0.09479 1.206377,-0.02919 0.02154,-0.05821 0.18754,-0.924691 0.368892,-1.925517 l 0.329731,-1.819684 0.02276,1.925517 0.02276,1.925517 h 0.604296 0.604296 l -0.05555,-1.283461 c -0.03055,-0.705904 -0.05555,-1.716802 -0.05555,-2.24644 v -0.962978 l -0.9525,0.02394 -0.9525,0.02394 -0.260479,1.608667 c -0.189981,1.173291 -0.275621,1.539923 -0.316431,1.354666 -0.05225,-0.23719 -0.481423,-2.882201 -0.481423,-2.967032 0,-0.02125 -0.413854,-0.03863 -0.919677,-0.03863 H 26.87385 l -0.05152,0.4445 c -0.03816,0.329276 -0.08524,3.469585 -0.05965,3.979333 0.0018,0.03493 0.24482,0.0635 0.540149,0.0635 h 0.53696 z M 42.547201,34.29 l -0.009,-1.778 0.247584,0.804333 c 0.136171,0.442384 0.387872,1.242483 0.559334,1.778 l 0.31175,0.973667 h 0.783166 c 0.430742,0 0.783167,-0.02857 0.783167,-0.0635 0,-0.03493 0,-1.03505 0,-2.2225 v -2.159 h -0.55799 -0.55799 l 0.02882,1.686396 c 0.01585,0.927517 0.02306,1.679992 0.01602,1.672166 -0.007,-0.0078 -0.231766,-0.766704 -0.499392,-1.686395 L 43.166083,31.623 h -0.87644 -0.876441 v 2.187222 c 0,1.202973 0.02701,2.214234 0.06003,2.247248 0.03301,0.03301 0.290189,0.04889 0.5715,0.03528 l 0.51147,-0.02475 z"
       id="path9587" />
  </g>
</svg>
