<?xml version="1.0" encoding="UTF-8" standalone="no"?>
<!-- Created with Inkscape (http://www.inkscape.org/) -->

<svg
   width="103.80603"
   height="50.660633"
   viewBox="0 0 27.465345 13.403959"
   version="1.1"
   id="svg5"
   inkscape:version="1.1.2 (0a00cf5339, 2022-02-04)"
   sodipodi:docname="xeror.svg"
   xmlns:inkscape="http://www.inkscape.org/namespaces/inkscape"
   xmlns:sodipodi="http://sodipodi.sourceforge.net/DTD/sodipodi-0.dtd"
   xmlns="http://www.w3.org/2000/svg"
   xmlns:svg="http://www.w3.org/2000/svg">
  <sodipodi:namedview
     id="namedview7"
     pagecolor="#ffffff"
     bordercolor="#666666"
     borderopacity="1.0"
     inkscape:pageshadow="2"
     inkscape:pageopacity="0.0"
     inkscape:pagecheckerboard="0"
     inkscape:document-units="px"
     showgrid="false"
     units="px"
     width="1200px"
     inkscape:zoom="2.7345145"
     inkscape:cx="86.852712"
     inkscape:cy="22.855977"
     inkscape:window-width="1366"
     inkscape:window-height="670"
     inkscape:window-x="0"
     inkscape:window-y="28"
     inkscape:window-maximized="1"
     inkscape:current-layer="g977" />
  <defs
     id="defs2" />
  <g
     inkscape:label="Layer 1"
     inkscape:groupmode="layer"
     id="layer1"
     transform="translate(-11.783602,-27.203887)">
    <g
       id="g977"
       style="display:inline">
      <path
         style="display:inline;fill:#da1125;fill-opacity:1;stroke-width:0.0846667"
         d="m 19.491219,40.440942 c -1.234963,-0.426771 -1.848481,-1.430695 -1.848481,-3.024739 0,-0.833693 0.0082,-0.869717 0.360781,-1.581136 0.414166,-0.835731 0.76442,-1.165594 1.521448,-1.432871 0.381471,-0.134683 0.630907,-0.164353 1.138989,-0.135482 0.832829,0.04732 1.346021,0.298861 1.784941,0.874875 0.417412,0.547787 0.570174,1.08366 0.570174,2.000111 v 0.746633 h -2.000745 -2.000744 l 0.05047,0.310988 c 0.05979,0.368449 0.426491,0.849805 0.827333,1.086012 0.433257,0.255309 1.314166,0.229183 2.009071,-0.05958 l 0.536382,-0.222893 0.114036,0.272928 c 0.277272,0.663605 0.267313,0.713475 -0.182193,0.912313 -0.981331,0.434089 -2.078417,0.530358 -2.881458,0.252846 z M 21.78872,36.79201 c 0.107338,-0.173677 -0.155293,-0.876342 -0.43035,-1.1514 -0.754865,-0.754865 -2.10686,-0.20981 -2.290774,0.923522 l -0.05001,0.308201 h 1.360747 c 0.766787,0 1.382417,-0.03506 1.410391,-0.08032 z m 7.779872,3.629359 C 28.940794,40.179935 28.409708,39.67516 28.081015,39.00749 27.81285,38.462768 27.802786,38.405243 27.804096,37.424447 c 0.0013,-0.974279 0.01311,-1.041911 0.276184,-1.582349 0.357746,-0.734913 0.961824,-1.289876 1.608741,-1.47794 0.614588,-0.178666 1.608051,-0.125657 2.148012,0.114612 1.484942,0.660762 2.085472,2.85258 1.251923,4.569273 -0.627178,1.291672 -2.168837,1.893088 -3.520364,1.373326 z m 1.756458,-1.114992 c 0.819967,-0.543312 1.015275,-2.488602 0.352344,-3.509386 -0.06656,-0.102488 -0.290773,-0.26852 -0.498254,-0.368959 -0.702098,-0.33988 -1.424272,-0.0585 -1.832792,0.714118 -0.155358,0.293824 -0.184972,0.490439 -0.186787,1.240165 -0.0019,0.792108 0.02189,0.93774 0.214528,1.312333 0.289421,0.562785 0.65448,0.802352 1.222648,0.802352 0.315398,0 0.522386,-0.05418 0.728313,-0.190623 z M 11.805003,40.3225 c 0.148925,-0.489059 0.927437,-1.860323 1.340417,-2.360997 l 0.458915,-0.556365 -0.381635,-0.54157 c -0.432561,-0.613836 -1.210295,-2.140369 -1.210295,-2.375562 0,-0.138644 0.07705,-0.155673 0.704365,-0.155673 h 0.704366 l 0.271324,0.613833 c 0.341018,0.771509 0.743377,1.418501 0.881267,1.417073 0.118147,-0.0012 0.792997,-1.009966 1.089627,-1.628739 l 0.192793,-0.402167 h 0.575795 c 0.350719,0 0.575796,0.03524 0.575796,0.09014 0,0.339781 -0.807005,1.795739 -1.364241,2.461297 l -0.344861,0.411898 0.335264,0.402167 c 0.594535,0.713178 1.543171,2.364379 1.543171,2.686053 0,0.105431 -0.128125,0.128757 -0.6985,0.127172 l -0.6985,-0.0019 -0.400153,-0.828288 c -0.364634,-0.754772 -0.926394,-1.55828 -1.016419,-1.453831 -0.299671,0.347683 -0.70346,0.978861 -0.99863,1.560997 L 12.997259,40.513 h -0.625133 c -0.609029,0 -0.623638,-0.0049 -0.567123,-0.1905 z m 12.434213,0.07443 c -0.02607,-0.06795 -0.03461,-1.1269 -0.01897,-2.353234 0.02447,-1.918877 0.04955,-2.276907 0.17992,-2.568364 0.192453,-0.430243 0.608778,-0.864914 0.989574,-1.033178 0.334475,-0.147796 2.009942,-0.24789 2.180533,-0.130267 0.08379,0.05778 0.08547,0.17644 0.008,0.562466 l -0.09825,0.48924 -0.346612,-0.04894 c -0.496676,-0.07013 -0.968986,0.06667 -1.270494,0.367986 l -0.261456,0.261284 -0.04233,2.263372 -0.04233,2.263371 -0.615057,0.0249 c -0.477647,0.01934 -0.625649,-0.0027 -0.662464,-0.09864 z m 9.654265,-0.116765 c 0.137454,-0.577337 1.06585,-2.140611 1.517217,-2.554758 0.123038,-0.112893 0.223705,-0.238014 0.223705,-0.278048 0,-0.04003 -0.188671,-0.349647 -0.419269,-0.688029 -0.505374,-0.741589 -1.189397,-2.094613 -1.189397,-2.352671 0,-0.04088 0.315913,-0.07433 0.702029,-0.07433 h 0.702029 l 0.235908,0.486833 c 0.362502,0.748081 0.848191,1.542337 0.942367,1.54107 0.129094,-0.0017 0.599038,-0.662665 0.967239,-1.360323 l 0.329984,-0.625247 0.607149,-0.02501 c 0.598187,-0.02465 0.606298,-0.02215 0.549468,0.169333 -0.135066,0.455083 -0.694149,1.459604 -1.153908,2.07326 -0.272412,0.363599 -0.495364,0.688338 -0.495447,0.721643 -8.4e-5,0.0333 0.10843,0.185705 0.241141,0.338666 0.535407,0.617107 1.382568,2.054455 1.573645,2.669947 0.05817,0.187388 0.04723,0.1905 -0.670109,0.1905 h -0.729248 l -0.323761,-0.6985 c -0.308503,-0.665581 -0.911542,-1.583474 -1.042114,-1.586214 -0.120206,-0.0025 -0.896762,1.192149 -1.126905,1.733653 L 35.101,40.513 H 34.469523 33.838046 Z M 24.119737,33.515359 C 23.101783,33.318394 22.676536,32.9739 22.423988,32.141623 22.26947,31.632409 22.255874,31.38152 22.276586,29.421667 l 0.02282,-2.159 0.541734,-0.02553 c 0.315396,-0.01487 0.5807,0.01334 0.635,0.06752 0.06097,0.06083 0.107923,0.870828 0.135599,2.339375 l 0.04233,2.246322 0.316256,0.289658 c 0.2738,0.250771 0.37438,0.289658 0.749205,0.289658 0.238121,0 0.564209,-0.06229 0.724639,-0.138417 0.511542,-0.242743 0.538233,-0.3766 0.538233,-2.699278 0,-1.274714 0.03404,-2.147706 0.08765,-2.247871 0.07274,-0.135909 0.180481,-0.163768 0.633387,-0.163768 0.507208,0 0.549385,0.01452 0.59734,0.205585 0.02838,0.113071 0.03771,1.151296 0.02075,2.307166 -0.02898,1.973988 -0.04267,2.127965 -0.225464,2.536129 -0.365618,0.816398 -0.968152,1.175827 -2.08732,1.245148 -0.372533,0.02307 -0.772583,0.02352 -0.889,9.98e-4 z m 4.275667,-0.02209 c -0.509981,-0.08413 -0.558364,-0.136929 -0.496576,-0.541878 0.08945,-0.586221 0.141822,-0.639086 0.557247,-0.562465 0.199465,0.03679 0.468804,0.04592 0.598533,0.02029 0.466356,-0.09213 0.483796,-0.189211 0.483796,-2.693123 0,-1.670214 0.02758,-2.320141 0.1016,-2.394161 0.148122,-0.148122 1.038488,-0.131133 1.165781,0.02224 0.166464,0.200577 0.08253,4.901004 -0.09462,5.298775 -0.323913,0.727314 -1.172532,1.038915 -2.315759,0.850315 z m -11.016083,-0.12861 c -0.02554,-0.06656 -0.03387,-1.23813 -0.01851,-2.6035 0.02721,-2.419122 0.0329,-2.490487 0.222693,-2.795724 0.107123,-0.172277 0.335723,-0.400877 0.508,-0.508 0.290405,-0.180573 0.422753,-0.196909 1.816066,-0.224158 l 1.502833,-0.02939 -9.31e-4,0.241058 c -5.08e-4,0.132581 -0.02409,0.381131 -0.0524,0.552333 l -0.05147,0.311276 -1.182271,0.02739 c -1.435818,0.03326 -1.42226,0.02319 -1.42226,1.057248 v 0.70116 l 1.2065,0.02349 1.2065,0.02349 V 30.607 31.072667 l -1.2065,0.02349 -1.2065,0.02349 v 1.081409 c 0,0.728207 -0.03318,1.114592 -0.1016,1.183009 -0.150441,0.15044 -1.161142,0.134363 -1.22015,-0.01941 z m 15.077813,0.01863 c -0.02325,-0.06059 -0.03225,-1.462523 -0.02,-3.115395 l 0.02227,-3.005223 h 0.592666 0.592667 V 30.353 33.443333 l -0.572663,0.02506 c -0.410816,0.01798 -0.584611,-0.0061 -0.61494,-0.08511 z"
         id="path979"
         sodipodi:nodetypes="sscscssccccsscsssscsccsccssscsssscssscssccscssscscscssscssccssccsccssscccsccccsccsssssscscsccsssssscscscccsssccccccsscsssscscsscsscsscsccccccscccccscccccccsccccscccccscc" />
    </g>
  </g>
</svg>
